HIERARCHY
ROOT Hips
{
 OFFSET 0.000000 0.000000 0.000000
 CHANNELS 6 Xposition Yposition Zposition Yrotation Xrotation Zrotation
 JOINT Chest
 {
  OFFSET 0.000000 9.588913 -0.003946
  CHANNELS 3 Yrotation Xrotation Zrotation
  JOINT Chest2
  {
   OFFSET 0.000000 9.541882 0.008053
   CHANNELS 3 Yrotation Xrotation Zrotation
   JOINT Chest3
   {
    OFFSET 0.000000 9.501360 0.000000
    CHANNELS 3 Yrotation Xrotation Zrotation
    JOINT Chest4
    {
     OFFSET 0.000000 9.491660 0.000000
     CHANNELS 3 Yrotation Xrotation Zrotation
     JOINT Neck
     {
      OFFSET 0.000000 14.331917 0.000000
      CHANNELS 3 Yrotation Xrotation Zrotation
      JOINT Head
      {
       OFFSET 0.000000 8.884799 0.017034
       CHANNELS 3 Yrotation Xrotation Zrotation
       End Site
       {
        OFFSET 0.000000 16.896195 0.008993
       }
      }
     }
     JOINT RightCollar
     {
      OFFSET -2.923010 9.499495 0.000000
      CHANNELS 3 Yrotation Xrotation Zrotation
      JOINT RightShoulder
      {
       OFFSET -13.795216 0.000000 0.000000
       CHANNELS 3 Yrotation Xrotation Zrotation
       JOINT RightElbow
       {
        OFFSET -30.272209 0.000000 0.000000
        CHANNELS 3 Yrotation Xrotation Zrotation
        JOINT RightWrist
        {
         OFFSET -24.478199 0.000000 0.000000
         CHANNELS 3 Yrotation Xrotation Zrotation
         End Site
         {
          OFFSET -18.090752 0.000000 0.000000
         }
        }
       }
      }
     }
     JOINT LeftCollar
     {
      OFFSET 2.923010 9.499495 0.000000
      CHANNELS 3 Yrotation Xrotation Zrotation
      JOINT LeftShoulder
      {
       OFFSET 13.795216 0.000000 0.000000
       CHANNELS 3 Yrotation Xrotation Zrotation
       JOINT LeftElbow
       {
        OFFSET 30.272209 0.000000 0.000000
        CHANNELS 3 Yrotation Xrotation Zrotation
        JOINT LeftWrist
        {
         OFFSET 24.478199 0.000000 0.000000
         CHANNELS 3 Yrotation Xrotation Zrotation
         End Site
         {
          OFFSET 18.090752 0.000000 0.000000
         }
        }
       }
      }
     }
    }
   }
  }
 }
 JOINT RightHip
 {
  OFFSET -7.826875 0.019532 0.001973
  CHANNELS 3 Yrotation Xrotation Zrotation
  JOINT RightKnee
  {
   OFFSET 0.000000 -40.546152 -0.001885
   CHANNELS 3 Yrotation Xrotation Zrotation
   JOINT RightAnkle
   {
    OFFSET 0.000000 -39.417092 -0.003189
    CHANNELS 3 Yrotation Xrotation Zrotation
    JOINT RightToe
    {
     OFFSET 0.000000 -7.579396 17.243563
     CHANNELS 3 Yrotation Xrotation Zrotation
     End Site
     {
      OFFSET 0.000000 -1.500329 6.694466
     }
    }
   }
  }
 }
 JOINT LeftHip
 {
  OFFSET 7.826875 0.019532 0.001973
  CHANNELS 3 Yrotation Xrotation Zrotation
  JOINT LeftKnee
  {
   OFFSET 0.000000 -40.546152 -0.001885
   CHANNELS 3 Yrotation Xrotation Zrotation
   JOINT LeftAnkle
   {
    OFFSET 0.000000 -39.417092 -0.003189
    CHANNELS 3 Yrotation Xrotation Zrotation
    JOINT LeftToe
    {
     OFFSET 0.000000 -7.579396 17.243563
     CHANNELS 3 Yrotation Xrotation Zrotation
     End Site
     {
      OFFSET 0.000000 -1.500329 6.694466
     }
    }
   }
  }
 }
}
MOTION
Frames: 7
Frame Time: 0.008333
-134.778944 88.886623 13.198721 28.834645 -10.281323 -0.799233 -2.450859 3.021195 0.793208 -1.502353 1.627234 0.451706 -1.876123 2.035847 0.558008 -1.502355 1.627235 0.451708 2.517799 17.767232 -4.540590 6.127385 -2.464442 -9.188036 -2.674755 4.508845 -5.576870 -0.133459 7.198558 88.869811 16.720403 -7.985090 8.950287 18.267423 -7.457214 -8.219445 1.937630 1.814981 2.669062 12.517638 4.188592 -89.469003 -9.356366 6.497569 -1.827444 1.443322 -1.136498 -3.130317 -4.340658 -3.199359 -0.285353 7.650387 14.286153 -0.159015 -12.070458 -4.634211 6.556280 -0.001413 -0.019594 -0.829625 1.141219 15.518680 -3.846232 2.172773 1.665017 -2.820728 -23.349846 -4.308324 6.275674 0.616865 0.628297 -0.009104
-135.062473 88.901529 13.169737 28.822458 -10.313665 -0.763451 -2.473014 3.065311 0.692521 -1.491807 1.673580 0.427717 -1.863002 2.093668 0.527879 -1.491808 1.673581 0.427718 2.506083 17.765369 -4.518637 6.098917 -2.471079 -9.144009 -2.688129 4.481550 -5.589770 0.094607 7.115928 89.170397 16.018664 -8.257889 8.663488 18.136789 -7.488752 -8.139824 1.941862 1.799965 2.664480 12.464459 4.204581 -89.461796 -9.309029 6.475087 -1.834227 1.406443 -1.149873 -3.114749 -4.232169 -3.434964 -0.437672 7.664347 14.712250 -0.157587 -12.127528 -4.776432 6.952774 0.039694 -0.053052 -0.818165 0.992983 15.485064 -3.826604 2.236898 1.545350 -2.754065 -23.120564 -4.191931 6.188505 0.470651 0.613442 -0.077298
-135.346305 88.918475 13.144543 28.814726 -10.346498 -0.720263 -2.494326 3.110278 0.591718 -1.482529 1.719306 0.401336 -1.851486 2.150707 0.494761 -1.482531 1.719307 0.401337 2.494839 17.760456 -4.493966 6.070700 -2.483550 -9.095372 -2.702591 4.455199 -5.588228 0.305042 7.027166 89.438216 15.347261 -8.511358 8.402470 17.980895 -7.511582 -8.035726 1.945752 1.784352 2.655838 12.430611 4.226313 -89.437808 -9.285214 6.486723 -1.860361 1.370510 -1.161305 -3.100878 -4.138499 -3.662105 -0.573603 7.658963 15.189673 -0.163385 -12.167521 -4.933112 7.303846 0.067528 -0.099454 -0.780580 0.860071 15.452344 -3.802962 2.328953 1.434899 -2.699312 -22.940179 -4.071849 6.104800 0.325529 0.589169 -0.140444
-135.625895 88.937099 13.117578 28.814429 -10.372669 -0.678204 -2.515376 3.151806 0.499402 -1.475197 1.761728 0.373124 -1.842419 2.203613 0.459358 -1.475199 1.761729 0.373125 2.483605 17.756132 -4.466891 6.041664 -2.495134 -9.042268 -2.718641 4.437730 -5.574989 0.495023 6.927029 89.676085 14.705554 -8.746594 8.161836 17.792656 -7.529103 -7.899762 1.950103 1.774127 2.642346 12.415983 4.248236 -89.401614 -9.275180 6.531341 -1.899349 1.332995 -1.173389 -3.088644 -4.073172 -3.884054 -0.690336 7.638878 15.712051 -0.174096 -12.179380 -5.097411 7.606160 0.083776 -0.162586 -0.719733 0.724377 15.406840 -3.784582 2.410731 1.340975 -2.648626 -22.731688 -3.957004 6.024863 0.198733 0.556095 -0.194715
-135.898338 88.957196 13.085986 28.820113 -10.392875 -0.652364 -2.532735 3.192083 0.430611 -1.470576 1.799336 0.343594 -1.836759 2.250500 0.422316 -1.470578 1.799337 0.343595 2.472112 17.756070 -4.437442 6.011007 -2.499043 -8.984383 -2.733435 4.433412 -5.553382 0.662091 6.811704 89.888068 14.086075 -8.968648 7.936978 17.573065 -7.544855 -7.732512 1.956719 1.770506 2.624577 12.413297 4.267865 -89.359206 -9.266670 6.600571 -1.943036 1.293917 -1.186365 -3.077751 -4.041785 -4.094436 -0.775195 7.606337 16.268510 -0.193073 -12.162711 -5.257054 7.861530 0.091694 -0.247602 -0.639963 0.571966 15.342782 -3.761685 2.456631 1.264643 -2.599774 -22.462818 -3.815583 5.951691 0.086177 0.484896 -0.244496
-136.155903 88.978235 13.043647 28.835565 -10.402082 -0.613482 -2.551698 3.226387 0.354328 -1.468586 1.832545 0.313500 -1.834399 2.291888 0.384573 -1.468588 1.832546 0.313501 2.459679 17.760744 -4.405900 5.977534 -2.494441 -8.921977 -2.746944 4.436892 -5.527394 0.805154 6.687595 90.083077 13.485942 -9.184187 7.725942 17.330677 -7.561576 -7.539576 1.964588 1.768281 2.601040 12.415556 4.286699 -89.311698 -9.253284 6.681379 -1.988331 1.255383 -1.196975 -3.069854 -4.049365 -4.299659 -0.859193 7.560999 16.857038 -0.227712 -12.142651 -5.417420 8.081768 0.092700 -0.343701 -0.548003 0.375955 15.250852 -3.763235 2.474355 1.207177 -2.554211 -22.203256 -3.705208 5.882748 -0.002466 0.443072 -0.286721
-136.398712 89.000034 12.991186 28.861518 -10.405712 -0.581975 -2.571024 3.258272 0.288049 -1.468498 1.863235 0.283781 -1.834422 2.330131 0.347299 -1.468499 1.863236 0.283782 2.445449 17.769257 -4.372330 5.939777 -2.483054 -8.854967 -2.762586 4.442755 -5.499568 0.922348 6.559971 90.271288 12.907577 -9.397813 7.525267 17.065989 -7.578526 -7.329614 1.969650 1.762977 2.571752 12.417933 4.305856 -89.260356 -9.230917 6.765049 -2.031774 1.220226 -1.204836 -3.065232 -4.096708 -4.490317 -0.923875 7.500681 17.470708 -0.283569 -12.120069 -5.570076 8.283664 0.088467 -0.452484 -0.456042 0.143463 15.139579 -3.773196 2.486819 1.167384 -2.513051 -21.933255 -3.595217 5.825550 -0.071605 0.396935 -0.323730
